<svg width="200" height="200" viewBox="0 0 200 200" fill="none" xmlns="http://www.w3.org/2000/svg">
  <!-- Background Circle with Gradient -->
  <defs>
    <linearGradient id="bgGradient" x1="0%" y1="0%" x2="100%" y2="100%">
      <stop offset="0%" style="stop-color:#6366f1;stop-opacity:1" />
      <stop offset="50%" style="stop-color:#a855f7;stop-opacity:1" />
      <stop offset="100%" style="stop-color:#ec4899;stop-opacity:1" />
    </linearGradient>
    
    <linearGradient id="globeGradient" x1="0%" y1="0%" x2="100%" y2="100%">
      <stop offset="0%" style="stop-color:#ffffff;stop-opacity:0.95" />
      <stop offset="100%" style="stop-color:#f0f0ff;stop-opacity:0.9" />
    </linearGradient>
    
    <filter id="shadow">
      <feDropShadow dx="0" dy="4" stdDeviation="8" flood-opacity="0.2"/>
    </filter>
  </defs>
  
  <!-- Background -->
  <circle cx="100" cy="100" r="95" fill="url(#bgGradient)" filter="url(#shadow)"/>
  
  <!-- Globe Circle -->
  <circle cx="100" cy="100" r="70" fill="url(#globeGradient)" opacity="0.95"/>
  
  <!-- Latitude Lines -->
  <ellipse cx="100" cy="100" rx="70" ry="20" fill="none" stroke="#6366f1" stroke-width="1.5" opacity="0.4"/>
  <ellipse cx="100" cy="100" rx="70" ry="40" fill="none" stroke="#6366f1" stroke-width="1.5" opacity="0.4"/>
  <line x1="30" y1="100" x2="170" y2="100" stroke="#6366f1" stroke-width="2" opacity="0.5"/>
  
  <!-- Longitude Lines -->
  <ellipse cx="100" cy="100" rx="20" ry="70" fill="none" stroke="#a855f7" stroke-width="1.5" opacity="0.4"/>
  <ellipse cx="100" cy="100" rx="40" ry="70" fill="none" stroke="#a855f7" stroke-width="1.5" opacity="0.4"/>
  <line x1="100" y1="30" x2="100" y2="170" stroke="#a855f7" stroke-width="2" opacity="0.5"/>
  
  <!-- Continents - Stylized Shapes -->
  <!-- Africa -->
  <path d="M 95 80 Q 90 90 92 100 Q 94 110 90 115 L 95 120 Q 100 118 105 115 Q 108 110 106 105 Q 104 95 100 85 Z" 
        fill="#ec4899" opacity="0.7"/>
  
  <!-- Europe -->
  <path d="M 100 70 L 108 75 L 110 82 L 105 85 L 98 83 L 96 78 Z" 
        fill="#8b5cf6" opacity="0.7"/>
  
  <!-- Asia -->
  <path d="M 110 75 Q 125 78 130 85 Q 132 95 128 105 Q 120 112 115 108 L 110 100 L 108 90 Z" 
        fill="#6366f1" opacity="0.7"/>
  
  <!-- Americas -->
  <path d="M 75 85 Q 72 95 75 105 L 78 115 L 82 120 Q 85 115 85 110 Q 87 100 85 90 L 82 85 Z" 
        fill="#a855f7" opacity="0.7"/>
  
  <!-- Oceania -->
  <path d="M 115 120 L 120 122 L 122 118 L 118 115 Z" 
        fill="#ec4899" opacity="0.7"/>
  
  <!-- Location Pin Icons -->
  <g opacity="0.8">
    <!-- Pin 1 - Top -->
    <circle cx="100" cy="65" r="3" fill="#fff"/>
    <circle cx="100" cy="65" r="2" fill="#ec4899"/>
    
    <!-- Pin 2 - Right -->
    <circle cx="125" cy="95" r="3" fill="#fff"/>
    <circle cx="125" cy="95" r="2" fill="#6366f1"/>
    
    <!-- Pin 3 - Left -->
    <circle cx="75" cy="100" r="3" fill="#fff"/>
    <circle cx="75" cy="100" r="2" fill="#a855f7"/>
    
    <!-- Pin 4 - Bottom -->
    <circle cx="95" cy="125" r="3" fill="#fff"/>
    <circle cx="95" cy="125" r="2" fill="#8b5cf6"/>
  </g>
  
  <!-- Sparkle Effects -->
  <g opacity="0.6">
    <path d="M 50 50 L 52 54 L 56 56 L 52 58 L 50 62 L 48 58 L 44 56 L 48 54 Z" fill="#fff"/>
    <path d="M 155 60 L 156 63 L 159 64 L 156 65 L 155 68 L 154 65 L 151 64 L 154 63 Z" fill="#fff"/>
    <path d="M 145 140 L 147 143 L 150 145 L 147 147 L 145 150 L 143 147 L 140 145 L 143 143 Z" fill="#fff"/>
    <path d="M 60 145 L 61 147 L 63 148 L 61 149 L 60 151 L 59 149 L 57 148 L 59 147 Z" fill="#fff"/>
  </g>
  
  <!-- Orbit Ring -->
  <circle cx="100" cy="100" r="75" fill="none" stroke="#fff" stroke-width="1" opacity="0.3" stroke-dasharray="5,5">
    <animateTransform
      attributeName="transform"
      type="rotate"
      from="0 100 100"
      to="360 100 100"
      dur="20s"
      repeatCount="indefinite"/>
  </circle>
</svg>
